<?xml version="1.0" standalone="no"?>
<!DOCTYPE svg PUBLIC "-//W3C//DTD SVG 20010904//EN"
 "http://www.w3.org/TR/2001/REC-SVG-20010904/DTD/svg10.dtd">
<svg version="1.0" xmlns="http://www.w3.org/2000/svg"
 width="260.000000pt" height="260.000000pt" viewBox="0 0 260.000000 260.000000"
 preserveAspectRatio="xMidYMid meet">
<metadata>
Created by potrace 1.14, written by Peter Selinger 2001-2017
</metadata>
<g transform="translate(0.000000,260.000000) scale(0.100000,-0.100000)"
fill="#000000" stroke="none">
<path d="M1145 2555 c-450 -63 -831 -360 -1000 -779 -120 -299 -123 -629 -10
-930 118 -314 388 -591 698 -718 343 -140 721 -127 1052 37 136 68 223 132
341 250 239 242 358 534 359 885 0 172 -14 261 -67 415 -113 332 -376 615
-699 751 -215 91 -446 121 -674 89z m350 -50 c400 -57 749 -314 924 -680 181
-377 155 -825 -66 -1173 -181 -284 -460 -477 -793 -549 -118 -25 -362 -25
-480 0 -511 110 -893 515 -966 1027 -94 660 363 1273 1026 1375 114 17 234 18
355 0z"/>
</g>
</svg>
